<?xml version="1.0" standalone="no"?>
<!DOCTYPE svg PUBLIC "-//W3C//DTD SVG 20010904//EN"
 "http://www.w3.org/TR/2001/REC-SVG-20010904/DTD/svg10.dtd">
<svg version="1.0" xmlns="http://www.w3.org/2000/svg"
 width="335.000000pt" height="335.000000pt" viewBox="0 0 335.000000 335.000000"
 preserveAspectRatio="xMidYMid meet">
<metadata>
Created by potrace 1.11, written by Peter Selinger 2001-2013
</metadata>
<g transform="translate(0.000000,335.000000) scale(0.100000,-0.100000)"
fill="#000000" stroke="none">
<path d="M1594 2855 c-49 -36 -95 -70 -102 -76 -37 -30 -192 -79 -232 -72 -3
1 -27 4 -55 7 -59 8 -149 37 -199 66 -20 11 -53 29 -73 41 -21 12 -52 32 -70
45 -17 13 -39 24 -47 24 -44 0 -210 -227 -293 -400 -35 -73 -69 -160 -65 -167
1 -2 -5 -22 -14 -45 -8 -23 -16 -53 -18 -67 -3 -14 -8 -46 -11 -71 -6 -38 -15
-119 -16 -155 -1 -14 10 -104 16 -143 3 -17 8 -49 11 -69 7 -59 31 -155 54
-216 12 -31 21 -59 21 -61 0 -7 74 -153 97 -191 33 -57 77 -120 109 -161 18
-23 33 -44 33 -48 0 -3 -154 -6 -342 -6 l-343 -1 30 -25 c44 -38 65 -55 116
-94 l46 -34 -56 -45 c-31 -25 -58 -48 -61 -51 -3 -3 -22 -19 -42 -37 l-38 -32
113 -1 c61 -1 172 -2 244 -3 l133 -2 0 -63 c0 -56 2 -63 18 -58 9 3 44 13 77
22 33 10 63 17 67 16 4 -1 26 5 49 13 23 9 56 18 73 21 17 3 74 14 128 24 53
11 106 20 117 20 12 0 45 -17 74 -38 120 -88 268 -175 402 -237 147 -68 140
-66 175 -49 187 89 255 123 309 156 34 21 65 38 67 38 3 0 10 5 17 10 7 6 47
36 91 66 l78 57 72 -13 c39 -7 72 -12 73 -12 2 0 17 -3 34 -8 18 -5 50 -12 71
-15 21 -3 56 -12 78 -20 22 -8 40 -13 40 -11 0 2 35 -7 78 -20 42 -13 78 -24
80 -24 1 0 2 28 2 63 l0 62 133 1 c304 4 348 6 338 18 -5 6 -46 40 -90 76 -44
36 -80 68 -81 71 0 8 28 34 75 70 22 17 55 42 73 57 l32 27 -335 5 -335 5 25
27 c64 70 185 279 234 408 28 73 72 240 66 251 -3 4 -1 10 4 13 12 8 11 356
-1 356 -5 0 -7 4 -4 8 3 4 0 28 -6 53 -5 24 -11 51 -13 59 -2 8 -4 17 -5 20
-1 3 -2 9 -1 13 1 4 -6 21 -14 37 -9 17 -14 30 -11 30 2 0 -11 36 -29 79 -45
107 -127 240 -215 351 -84 104 -92 107 -175 50 -24 -16 -46 -30 -49 -30 -3 0
-27 -14 -53 -30 -79 -50 -192 -85 -263 -82 -117 6 -187 36 -330 142 -52 38
-95 70 -96 70 -1 0 -41 -29 -90 -65z"/>
</g>
</svg>
